<svg xmlns="http://www.w3.org/2000/svg" width="60" height="60" viewBox="0 0 60 60"><path d="M26.75,35A3.75,3.75,0,1,1,23,31.25,3.751,3.751,0,0,1,26.75,35ZM41,31.25A3.75,3.75,0,1,0,44.75,35,3.751,3.751,0,0,0,41,31.25ZM62,32A30,30,0,1,1,32,2,30.011,30.011,0,0,1,62,32ZM27.98,8.36A23.969,23.969,0,0,0,48.5,20a25.038,25.038,0,0,0,4.02-.36A23.969,23.969,0,0,0,32,8,25.038,25.038,0,0,0,27.98,8.36ZM9.26,24.41A24.138,24.138,0,0,0,20.24,11.09,24.138,24.138,0,0,0,9.26,24.41ZM56,32a23.639,23.639,0,0,0-.99-6.72A30.917,30.917,0,0,1,48.5,26,30,30,0,0,1,25.22,14.93,30.048,30.048,0,0,1,8,31.58,1.96,1.96,0,0,1,8,32a24,24,0,0,0,48,0Z" transform="translate(-2 -2)" fill="#506176"/></svg>